<?xml version="1.0" encoding="utf-8"?>
<!-- Generator: Adobe Illustrator 24.3.0, SVG Export Plug-In . SVG Version: 6.00 Build 0)  -->
<svg version="1.1" id="Layer_1" xmlns="http://www.w3.org/2000/svg" xmlns:xlink="http://www.w3.org/1999/xlink" x="0px" y="0px"
	 viewBox="0 0 96 96" style="enable-background:new 0 0 96 96;" xml:space="preserve">
<style type="text/css">
	.st0{fill:none;stroke:#FFFFFF;stroke-width:5;stroke-miterlimit:10;}
</style>
<g>
	<path class="st0" d="M50.3,93c-12,0-23.3-4.7-31.9-13.2S5.2,60,5.2,48c0-12,4.7-23.3,13.2-31.9C26.9,7.6,38.2,2.9,50.3,2.9
		c12,0,23.3,4.7,31.9,13.2l-17,17c-4-4-9.2-6.2-14.8-6.2c-5.6,0-10.9,2.2-14.8,6.2c-4,4-6.2,9.2-6.2,14.8c0,5.6,2.2,10.9,6.2,14.8
		S44.7,69,50.3,69c5.6,0,10.9-2.2,14.8-6.2l17,17C73.6,88.3,62.3,93,50.3,93z"/>
	<circle class="st0" cx="49.7" cy="47.4" r="11.6"/>
</g>
</svg>
