<?xml version="1.0" encoding="utf-8"?>
<!-- Generator: Adobe Illustrator 24.3.0, SVG Export Plug-In . SVG Version: 6.00 Build 0)  -->
<svg version="1.1" id="Layer_1" xmlns="http://www.w3.org/2000/svg" xmlns:xlink="http://www.w3.org/1999/xlink" x="0px" y="0px"
	 viewBox="0 0 96 96" style="enable-background:new 0 0 96 96;" xml:space="preserve">
<style type="text/css">
	.st0{stroke:#000000;stroke-miterlimit:10;}
</style>
<g>
	<path d="M49,94.8C36.6,94.8,24.8,90,16,81.1S2.2,60.5,2.2,48C2.2,35.6,7.1,23.8,16,15C24.8,6.1,36.6,1.2,49,1.2
		c12.5,0,24.2,4.9,33.1,13.7L64.5,32.6c-4.1-4.1-9.6-6.4-15.4-6.4c-5.8,0-11.3,2.3-15.4,6.4c-4.1,4.1-6.4,9.6-6.4,15.4
		c0,5.8,2.3,11.3,6.4,15.4s9.6,6.4,15.4,6.4c5.8,0,11.3-2.3,15.4-6.4l17.7,17.7C73.3,90,61.5,94.8,49,94.8z"/>
	<circle class="st0" cx="48.5" cy="47.5" r="12"/>
</g>
</svg>
